<svg width="482" height="587" viewBox="0 0 482 587" fill="none" xmlns="http://www.w3.org/2000/svg">
<g clip-path="url(#clip0_20_163)">
<path fill-rule="evenodd" clip-rule="evenodd" d="M96.985 177.08C96.2461 258.341 163.768 324.835 247.799 325.599C331.831 326.363 400.551 261.108 401.29 179.847C402.029 98.5854 334.507 32.0915 250.475 31.3273C166.444 30.5632 97.724 95.8182 96.985 177.08Z" fill="#FCBDA4"/>
<path fill-rule="evenodd" clip-rule="evenodd" d="M364.607 543.584L476.926 527.751C540.997 518.72 586.541 455.512 578.133 387.288C569.726 319.064 510.427 270.633 446.356 279.664L334.036 295.497C269.965 304.528 224.423 367.738 232.829 435.96C241.236 504.184 300.535 552.615 364.607 543.584Z" fill="#FCBDA4"/>
<path fill-rule="evenodd" clip-rule="evenodd" d="M349.031 337.593L442.072 324.479C487.949 318.011 520.56 272.75 514.539 223.899C508.52 175.048 466.058 140.369 420.181 146.837L327.142 159.952C281.265 166.418 248.652 211.679 254.673 260.53C260.691 309.383 303.153 344.061 349.031 337.593Z" fill="#FCBDA4"/>
<path fill-rule="evenodd" clip-rule="evenodd" d="M379.505 202.048C420.24 196.305 449.197 156.116 443.853 112.74L443.851 112.74C438.507 69.3643 400.804 38.5716 360.069 44.315C319.334 50.0561 290.375 90.2442 295.721 133.622C301.067 176.999 338.77 207.791 379.505 202.048Z" fill="#FCBDA4"/>
<path fill-rule="evenodd" clip-rule="evenodd" d="M224.352 354.443C224.352 354.443 252.205 355.573 264.145 348.773L225.654 374.006L224.352 354.443Z" fill="#CF3E83"/>
<path fill-rule="evenodd" clip-rule="evenodd" d="M285.682 296.145C276.793 310.952 280.201 330.598 285.085 342.104C286.734 346.059 297.388 379.177 298.972 380.687C305.129 386.543 228.797 421.136 228.797 421.136L224.352 354.443C202.305 355.596 176.455 354.122 162.342 343.932C120.306 313.577 118.747 209.637 119.486 204.448L155.355 162.493C155.355 162.493 218.116 138.015 226.159 149.269C240.869 169.888 265.883 260.492 291.215 250.264C291.215 250.264 288.291 221.743 310.621 221.982C327.257 222.159 331.636 236.414 331.548 244.622C331.257 272.336 297.616 276.198 285.682 296.145Z" fill="#ED4848"/>
<path fill-rule="evenodd" clip-rule="evenodd" d="M164.735 249.063L148.415 290.087L166.917 289.86L164.735 249.063Z" fill="#405FD3"/>
<path fill-rule="evenodd" clip-rule="evenodd" d="M181.696 251.003C182.02 259.231 186.502 265.679 191.71 265.408C196.919 265.136 200.88 258.246 200.558 250.018C200.235 241.79 195.753 235.341 190.544 235.613C185.335 235.884 181.374 242.777 181.696 251.003Z" fill="#0D0B6D"/>
<path fill-rule="evenodd" clip-rule="evenodd" d="M132.823 249.246C133.147 257.474 137.628 263.922 142.837 263.651C148.046 263.379 152.007 256.489 151.685 248.261C151.361 240.032 146.88 233.582 141.671 233.853C136.462 234.125 132.501 241.018 132.823 249.246Z" fill="#0D0B6D"/>
<path d="M171.278 309.621C171.278 309.621 183.294 313.875 195.502 299.681" stroke="#1C295E" stroke-width="3"/>
<path opacity="0.401762" fill-rule="evenodd" clip-rule="evenodd" d="M224.397 354.443C224.397 354.443 252.252 355.573 264.19 348.771L225.7 374.004L224.397 354.443Z" fill="black"/>
<path fill-rule="evenodd" clip-rule="evenodd" d="M220.205 150.501C216.949 161.573 211.878 171.572 205.421 180.26C204.586 181.331 203.739 182.45 202.831 183.495C196.968 190.621 190.139 196.762 182.609 201.765C162.304 215.222 136.808 220.439 111.329 214.74C110.025 214.444 108.752 214.132 107.469 213.76L117.38 180.072L117.406 180.079C117.691 179.021 117.994 177.994 118.301 176.941C130.533 135.362 156.074 101.895 188.878 79.7254C194.977 75.5925 201.336 71.8797 207.906 68.5658C216.653 82.0596 222.156 97.5847 223.698 113.772C224.866 125.847 223.801 138.278 220.205 150.501Z" fill="#FCBDA4"/>
<path fill-rule="evenodd" clip-rule="evenodd" d="M291.216 250.154C291.216 250.154 216.971 262.053 191.928 162.613C166.021 59.7465 332.592 129.84 332.592 129.84L281.978 193.17L291.216 250.154Z" fill="#FCBDA4"/>
<path fill-rule="evenodd" clip-rule="evenodd" d="M264.318 333.254C264.067 360.849 284.871 383.412 310.782 383.648C336.695 383.883 357.903 361.702 358.154 334.107C358.405 306.512 337.604 283.949 311.691 283.714C285.78 283.478 264.569 305.659 264.318 333.254Z" fill="#FCBDA4"/>
</g>
<defs>
<clipPath id="clip0_20_163">
<rect width="577.501" height="581.11" fill="white" transform="matrix(-0.999959 -0.00909323 -0.00909323 0.999959 582.761 5.25134)"/>
</clipPath>
</defs>
</svg>
