<svg width="783" height="1259" viewBox="0 0 783 1259" fill="none" xmlns="http://www.w3.org/2000/svg">
<g clip-path="url(#clip0_80_4)">
<path fill-rule="evenodd" clip-rule="evenodd" d="M1021.72 1016.18L980.711 734.472C957.317 573.775 780.698 456.849 588.221 474.644C395.744 492.434 257.402 638.465 280.796 799.162L321.809 1080.87C345.203 1241.57 521.828 1358.49 714.298 1340.7C906.775 1322.91 1045.12 1176.88 1021.72 1016.18Z" fill="#FCBDA4"/>
<path fill-rule="evenodd" clip-rule="evenodd" d="M453.073 181.08C452.334 262.341 519.856 328.835 603.887 329.599C687.919 330.363 756.639 265.108 757.378 183.847C758.117 102.585 690.595 36.0915 606.563 35.3273C522.532 34.5632 453.812 99.8182 453.073 181.08Z" fill="#FCBDA4"/>
<path fill-rule="evenodd" clip-rule="evenodd" d="M720.695 547.584L833.014 531.751C897.085 522.72 942.629 459.512 934.221 391.288C925.814 323.064 866.515 274.633 802.444 283.664L690.124 299.497C626.053 308.528 580.511 371.738 588.917 439.96C597.324 508.184 656.623 556.615 720.695 547.584Z" fill="#FCBDA4"/>
<path fill-rule="evenodd" clip-rule="evenodd" d="M705.119 341.593L798.16 328.479C844.037 322.011 876.648 276.75 870.627 227.899C864.609 179.048 822.146 144.369 776.269 150.837L683.23 163.952C637.353 170.418 604.74 215.679 610.761 264.53C616.779 313.383 659.242 348.061 705.119 341.593Z" fill="#FCBDA4"/>
<path fill-rule="evenodd" clip-rule="evenodd" d="M735.593 206.048C776.328 200.305 805.286 160.116 799.941 116.74L799.939 116.74C794.595 73.3643 756.892 42.5716 716.158 48.315C675.422 54.0561 646.463 94.2442 651.809 137.622C657.155 180.999 694.858 211.791 735.593 206.048Z" fill="#FCBDA4"/>
<path fill-rule="evenodd" clip-rule="evenodd" d="M580.44 358.443C580.44 358.443 608.293 359.573 620.233 352.773L581.742 378.006L580.44 358.443Z" fill="#CF3E83"/>
<path fill-rule="evenodd" clip-rule="evenodd" d="M641.77 300.145C632.882 314.952 636.289 334.598 641.173 346.104C642.822 350.059 653.477 383.177 655.06 384.687C661.217 390.543 584.885 425.136 584.885 425.136L580.44 358.443C558.393 359.596 532.543 358.122 518.43 347.932C476.394 317.577 474.835 213.637 475.574 208.448L511.443 166.493C511.443 166.493 574.204 142.015 582.248 153.269C596.957 173.888 621.971 264.492 647.303 254.264C647.303 254.264 644.379 225.743 666.709 225.982C683.345 226.159 687.724 240.414 687.636 248.622C687.345 276.336 653.704 280.198 641.77 300.145Z" fill="#ED4848"/>
<path fill-rule="evenodd" clip-rule="evenodd" d="M520.823 253.063L504.503 294.087L523.005 293.86L520.823 253.063Z" fill="#405FD3"/>
<path fill-rule="evenodd" clip-rule="evenodd" d="M537.784 255.003C538.108 263.231 542.59 269.679 547.798 269.408C553.007 269.136 556.968 262.246 556.646 254.018C556.323 245.79 551.841 239.341 546.632 239.613C541.423 239.884 537.462 246.777 537.784 255.003Z" fill="#0D0B6D"/>
<path fill-rule="evenodd" clip-rule="evenodd" d="M488.911 253.246C489.235 261.474 493.716 267.922 498.925 267.651C504.134 267.379 508.095 260.489 507.773 252.261C507.45 244.032 502.968 237.582 497.759 237.853C492.55 238.125 488.589 245.018 488.911 253.246Z" fill="#0D0B6D"/>
<path d="M527.366 313.621C527.366 313.621 539.382 317.875 551.59 303.681" stroke="#1C295E" stroke-width="3"/>
<path opacity="0.401762" fill-rule="evenodd" clip-rule="evenodd" d="M580.485 358.443C580.485 358.443 608.341 359.573 620.278 352.771L581.788 378.004L580.485 358.443Z" fill="black"/>
<path fill-rule="evenodd" clip-rule="evenodd" d="M576.293 154.501C573.037 165.573 567.966 175.572 561.509 184.26C560.674 185.331 559.827 186.45 558.919 187.495C553.056 194.621 546.227 200.762 538.697 205.765C518.392 219.222 492.896 224.439 467.416 218.74C466.113 218.444 464.84 218.132 463.557 217.76L473.468 184.072L473.494 184.079C473.779 183.021 474.082 181.994 474.389 180.941C486.621 139.362 512.162 105.895 544.966 83.7254C551.065 79.5926 557.424 75.8797 563.994 72.5658C572.741 86.0596 578.244 101.585 579.786 117.772C580.954 129.847 579.889 142.278 576.293 154.501Z" fill="#FCBDA4"/>
<path fill-rule="evenodd" clip-rule="evenodd" d="M576.293 154.501C573.037 165.573 567.966 175.572 561.509 184.26C560.674 185.331 559.827 186.45 558.919 187.495C553.056 194.621 546.227 200.762 538.697 205.765C518.392 219.222 492.896 224.439 467.416 218.74C466.113 218.444 464.84 218.132 463.557 217.76L473.468 184.072L473.494 184.079C473.779 183.021 474.082 181.994 474.389 180.941C486.621 139.362 512.162 105.895 544.966 83.7254C551.065 79.5926 557.424 75.8797 563.994 72.5658C572.741 86.0596 578.244 101.585 579.786 117.772C580.954 129.847 579.889 142.278 576.293 154.501Z" fill="#FCBDA4"/>
<path fill-rule="evenodd" clip-rule="evenodd" d="M647.304 254.154C647.304 254.154 573.059 266.053 548.016 166.613C522.109 63.7465 688.68 133.84 688.68 133.84L638.066 197.17L647.304 254.154Z" fill="#FCBDA4"/>
<path fill-rule="evenodd" clip-rule="evenodd" d="M620.406 337.254C620.155 364.849 640.959 387.412 666.87 387.648C692.783 387.883 713.991 365.702 714.242 338.107C714.493 310.512 693.692 287.949 667.778 287.714C641.867 287.478 620.657 309.659 620.406 337.254Z" fill="#FCBDA4"/>
<path fill-rule="evenodd" clip-rule="evenodd" d="M-866.238 1807.38C-873.286 2582.42 -288.999 3216.12 438.742 3222.74C1166.54 3229.36 1762.2 2606.38 1769.24 1831.35C1776.29 1056.31 1192.07 422.601 464.265 415.983C-263.476 409.365 -859.19 1032.34 -866.238 1807.38Z" fill="#FCBDA4"/>
</g>
<defs>
<clipPath id="clip0_80_4">
<rect width="771.097" height="1250.63" fill="white" transform="matrix(-0.999959 -0.00909323 -0.00909323 0.999959 782.854 7.83279)"/>
</clipPath>
</defs>
</svg>
